<?xml version="1.0" encoding="UTF-8"?>
<svg id="Capa_1" data-name="Capa 1" xmlns="http://www.w3.org/2000/svg" version="1.1" viewBox="0 0 1080 1080">
  <defs>
    <style>
      .cls-1 {
        fill: #3d65fe;
        stroke-width: 0px;
      }
    </style>
  </defs>
  <g>
    <path class="cls-1" d="M473.5,538.8c1.1.6,2.3,1.4,3.4,2.3,1.1.9,2.2,2.1,3.1,3.4,1,1.3,1.7,2.9,2.3,4.7.6,1.8.9,3.8.9,6.1,0,4.6-.7,8.4-2.2,11.4-1.5,3-3.4,5.4-5.9,7.2-2.5,1.8-5.3,3.1-8.6,3.8-3.2.7-6.6,1.1-10.1,1.1h-33.7c-.7,0-1.3-.2-1.8-.7-.5-.5-.7-1.1-.7-1.8v-72.7c0-.7.2-1.3.7-1.8s1.1-.7,1.8-.7h32.1c3.4,0,6.7.4,9.8,1.1,3.1.7,5.9,2,8.2,3.7,2.4,1.7,4.3,3.9,5.7,6.6,1.5,2.7,2.2,6.1,2.2,10s-.8,5.9-2.4,8.3c-1.6,2.3-3.3,4.2-5.2,5.5-1.3.9-1.2,1.7.2,2.4ZM443.8,530.7h9.9c1.4,0,2.5-.5,3.4-1.6.8-1.1,1.3-2.3,1.3-3.7s-.5-2.4-1.5-3.3c-1-.9-2-1.4-2.9-1.4h-10.1c-.7,0-1.3.2-1.8.7-.5.5-.7,1.1-.7,1.8v4.9c0,.7.2,1.3.7,1.8.5.5,1.1.7,1.8.7ZM455,548.2h-11.2c-.7,0-1.3.2-1.8.7-.5.5-.7,1.1-.7,1.8v6.1c0,.7.2,1.3.7,1.8.5.5,1.1.7,1.8.7h11.9c1.3,0,2.5-.5,3.6-1.6,1.1-1.1,1.7-2.3,1.7-3.7s-.5-2.6-1.6-3.9c-1.1-1.3-2.6-2-4.4-2Z"/>
    <path class="cls-1" d="M552.7,561.9v14.4c0,.7-.2,1.3-.7,1.8s-1.1.7-1.8.7h-53c-.8,0-1.4-.2-1.9-.7-.5-.5-.7-1.1-.7-1.8v-72.7c0-.7.2-1.3.7-1.8.5-.5,1.1-.7,1.9-.7h15.9c.7,0,1.3.2,1.8.7.5.5.7,1.1.7,1.8v53.1c0,.7.2,1.3.7,1.8.5.5,1.1.7,1.9.7h32c.7,0,1.3.2,1.8.7.5.5.7,1.1.7,1.8Z"/>
    <path class="cls-1" d="M560,503.8c0-.7.2-1.3.7-1.8.5-.5,1.1-.7,1.8-.7h16c.7,0,1.3.2,1.8.7.5.5.7,1.1.7,1.8v43c0,2.8.4,5,1.3,6.9.9,1.8,2,3.2,3.3,4.2,1.3,1,2.7,1.8,4.2,2.2,1.5.4,2.8.6,4.1.6s2.6-.2,4.1-.6c1.5-.4,2.9-1.2,4.2-2.2,1.3-1,2.4-2.4,3.3-4.2.9-1.8,1.3-4.1,1.3-6.9v-43c0-.7.2-1.3.7-1.8.5-.5,1.1-.7,1.8-.7h16c.7,0,1.3.2,1.8.7.5.5.7,1.1.7,1.8v43c0,5-.8,9.6-2.4,13.7-1.6,4.1-3.9,7.6-6.8,10.5-3,2.9-6.5,5.2-10.7,6.7-4.2,1.6-8.8,2.4-13.9,2.4s-9.7-.8-13.9-2.4c-4.2-1.6-7.7-3.8-10.7-6.7-3-2.9-5.3-6.4-6.9-10.5-1.6-4.1-2.4-8.7-2.4-13.7v-43Z"/>
    <path class="cls-1" d="M662.3,578.9h-15.9c-.7,0-1.3-.2-1.8-.7-.5-.5-.7-1.1-.7-1.8v-72.7c0-.7.2-1.3.7-1.8s1.1-.7,1.8-.7h33c4.1,0,7.9.7,11.4,2.1,3.5,1.4,6.4,3.3,8.9,5.8,2.4,2.5,4.4,5.4,5.7,8.8,1.4,3.4,2.1,7.2,2.1,11.3s-.3,4.5-.8,6.7-1.3,4.3-2.3,6.3c-1,2-2.2,3.8-3.5,5.4-1.3,1.6-2.9,2.9-4.6,4-.6.4-.9.9-1.1,1.5-.2.6,0,1.2.4,1.8,2.7,3.5,5.5,7.2,8.5,10.9,3,3.8,5.6,7.2,8,10.3.4.6.5,1.2.3,1.9-.2.7-.7,1-1.4,1h-19.8c-.7,0-1.5-.2-2.3-.6-.8-.4-1.4-.9-1.9-1.4-2.3-3-4.5-6-6.7-9-2.2-3-4.4-6.1-6.6-9.2-.4-.6-1-1-1.8-1.4-.8-.4-1.5-.6-2.2-.6h-2.3c-.7,0-1.3.2-1.8.7-.5.5-.7,1.1-.7,1.8v17.2c0,.7-.3,1.3-.7,1.8-.5.5-1.1.7-1.8.7ZM667.4,537h11.2c.8,0,1.7-.2,2.6-.5s1.8-.8,2.5-1.5c.8-.7,1.4-1.5,1.9-2.5.5-1,.7-2.2.7-3.5s-.1-1.5-.4-2.5c-.2-1-.7-1.9-1.3-2.8-.6-.9-1.4-1.6-2.4-2.2-1-.6-2.3-.9-3.8-.9h-11.2c-.7,0-1.3.2-1.8.7-.5.5-.7,1.1-.7,1.8v11.3c0,.7.2,1.3.7,1.8.5.5,1.1.7,1.8.7Z"/>
    <path class="cls-1" d="M716.8,540c0-5.5,1.1-10.7,3.2-15.6,2.1-4.9,5-9.2,8.6-12.8,3.6-3.6,7.9-6.5,12.7-8.7,4.9-2.1,10.1-3.2,15.6-3.2s10.7,1.1,15.6,3.2c4.9,2.1,9.2,5,12.8,8.7,3.6,3.6,6.5,7.9,8.7,12.8,2.1,4.9,3.2,10.1,3.2,15.6s-1.1,10.7-3.2,15.6c-2.1,4.9-5,9.2-8.7,12.8s-7.9,6.5-12.8,8.7c-4.9,2.1-10.1,3.2-15.6,3.2s-10.7-1.1-15.6-3.2c-4.9-2.1-9.1-5-12.7-8.7-3.6-3.6-6.5-7.9-8.6-12.8-2.1-4.9-3.2-10.1-3.2-15.6ZM737.8,540c0,2.7.5,5.2,1.5,7.6,1,2.4,2.4,4.5,4.1,6.4,1.7,1.8,3.8,3.3,6.1,4.4,2.3,1.1,4.8,1.6,7.4,1.6s5.1-.5,7.4-1.6c2.3-1.1,4.4-2.6,6.2-4.4,1.8-1.8,3.2-4,4.1-6.4,1-2.4,1.5-5,1.5-7.6s-.5-5.2-1.5-7.6c-1-2.4-2.4-4.6-4.1-6.4-1.8-1.8-3.8-3.3-6.2-4.4-2.3-1.1-4.8-1.6-7.4-1.6s-5.1.5-7.4,1.6c-2.3,1.1-4.4,2.5-6.1,4.4-1.7,1.8-3.1,3.9-4.1,6.4-1,2.4-1.5,5-1.5,7.6Z"/>
    <path class="cls-1" d="M804.8,540c0-5.5,1.1-10.7,3.2-15.6,2.1-4.9,5-9.2,8.6-12.8,3.6-3.6,7.9-6.5,12.7-8.7,4.9-2.1,10.1-3.2,15.6-3.2s10.7,1.1,15.6,3.2c4.9,2.1,9.2,5,12.8,8.7,3.6,3.6,6.5,7.9,8.7,12.8,2.1,4.9,3.2,10.1,3.2,15.6s-1.1,10.7-3.2,15.6c-2.1,4.9-5,9.2-8.7,12.8s-7.9,6.5-12.8,8.7c-4.9,2.1-10.1,3.2-15.6,3.2s-10.7-1.1-15.6-3.2c-4.9-2.1-9.1-5-12.7-8.7-3.6-3.6-6.5-7.9-8.6-12.8-2.1-4.9-3.2-10.1-3.2-15.6ZM825.8,540c0,2.7.5,5.2,1.5,7.6,1,2.4,2.4,4.5,4.1,6.4,1.7,1.8,3.8,3.3,6.1,4.4,2.3,1.1,4.8,1.6,7.4,1.6s5.1-.5,7.4-1.6c2.3-1.1,4.4-2.6,6.2-4.4,1.8-1.8,3.2-4,4.1-6.4,1-2.4,1.5-5,1.5-7.6s-.5-5.2-1.5-7.6c-1-2.4-2.4-4.6-4.1-6.4-1.8-1.8-3.8-3.3-6.2-4.4-2.3-1.1-4.8-1.6-7.4-1.6s-5.1.5-7.4,1.6c-2.3,1.1-4.4,2.5-6.1,4.4-1.7,1.8-3.1,3.9-4.1,6.4-1,2.4-1.5,5-1.5,7.6Z"/>
    <path class="cls-1" d="M982.8,503.8v72.5c0,.7-.2,1.3-.7,1.8-.5.5-1.1.7-1.8.7h-16c-.7,0-1.3-.2-1.8-.7-.5-.5-.7-1.1-.7-1.8v-34.2c0-.7-.3-1.1-1-1.2-.6,0-1.2.2-1.6.7l-17.9,28.8c-.4.6-.9.8-1.7.8s-1.4-.3-1.8-.8l-17.9-28.8c-.4-.6-.9-.8-1.5-.7-.6,0-1,.5-1,1.2v34.2c0,.7-.2,1.3-.7,1.8-.5.5-1.1.7-1.8.7h-16c-.7,0-1.3-.2-1.8-.7-.5-.5-.7-1.1-.7-1.8v-72.5c0-.7.2-1.3.7-1.8.5-.5,1.1-.7,1.8-.7h14.8c.7,0,1.4.2,2.2.6.8.4,1.3.9,1.7,1.5l20.4,30c.4.6.9.8,1.5.8s1-.3,1.4-.8l20.4-30c.4-.6,1-1.1,1.8-1.5.8-.4,1.5-.6,2.2-.6h14.8c.7,0,1.3.2,1.8.7.5.5.7,1.1.7,1.8Z"/>
  </g>
  <g>
    <path class="cls-1" d="M284.9,433.3c10.6,0,20.5,4.1,27.9,11.6,7.5,7.5,11.6,17.4,11.6,27.9v7.4c0,4.8-.9,9.5-2.8,14-1.8,4.5-4.5,8.5-7.9,11.9l-33.9,33.9,33.9,33.9c3.4,3.4,6.1,7.4,7.9,11.9,1.8,4.5,2.8,9.2,2.8,14v7.4c0,10.6-4.1,20.5-11.6,27.9-7.5,7.5-17.4,11.6-27.9,11.6h-134.3c-10.6,0-20.5-4.1-27.9-11.6-7.5-7.5-11.6-17.4-11.6-27.9v-134.3c0-10.6,4.1-20.5,11.6-27.9,7.5-7.5,17.4-11.6,27.9-11.6h134.3M284.9,419.5h-134.3c-14.3,0-27.7,5.6-37.7,15.6-10.1,10.1-15.6,23.5-15.6,37.7v134.3c0,14.3,5.6,27.7,15.6,37.7,10.1,10.1,23.5,15.6,37.7,15.6h134.3c14.3,0,27.7-5.6,37.7-15.6,10.1-10.1,15.6-23.5,15.6-37.7v-7.4c0-6.7-1.3-13.2-3.8-19.3-2.6-6.2-6.2-11.7-10.9-16.4l-24-24,24.1-24.1c4.7-4.7,8.4-10.2,10.9-16.4,2.5-6.2,3.8-12.7,3.8-19.3v-7.4c0-14.3-5.6-27.7-15.6-37.7-10.1-10.1-23.5-15.6-37.7-15.6h0Z"/>
    <path class="cls-1" d="M267.1,533.1c-3.8,3.8-3.8,9.9,0,13.7l36.8,36.8c4.3,4.3,6.7,10,6.7,16.1v7.4c0,14.2-11.5,25.6-25.6,25.6h-134.3c-14.2,0-25.6-11.5-25.6-25.6v-134.3c0-14.2,11.5-25.6,25.6-25.6h134.3c14.2,0,25.6,11.5,25.6,25.6v7.4c0,6-2.4,11.8-6.7,16.1l-36.8,36.8Z"/>
  </g>
</svg>